<?xml version="1.0" standalone="no"?>
<!DOCTYPE svg PUBLIC "-//W3C//DTD SVG 20010904//EN"
 "http://www.w3.org/TR/2001/REC-SVG-20010904/DTD/svg10.dtd">
<svg version="1.0" xmlns="http://www.w3.org/2000/svg"
 width="1500.000000pt" height="1500.000000pt" viewBox="0 0 1500.000000 1500.000000"
 preserveAspectRatio="xMidYMid meet">
<metadata>
Created by potrace 1.16, written by Peter Selinger 2001-2019
</metadata>
<g transform="translate(0.000000,1500.000000) scale(0.100000,-0.100000)"
fill="#000000" stroke="none">
<path d="M6070 12645 c-61 -19 -113 -65 -144 -127 l-26 -52 0 -3617 0 -3617
28 -53 c95 -182 337 -178 436 6 l21 40 -1 3625 c-1 3372 -2 3628 -18 3663 -26
59 -87 114 -147 131 -63 19 -90 19 -149 1z"/>
<path d="M6970 11745 c-61 -19 -113 -65 -144 -127 l-26 -52 0 -3617 0 -3617
28 -53 c95 -182 337 -178 436 6 l21 40 2 2141 3 2142 -128 4 c-138 5 -187 20
-240 76 -106 113 -70 299 73 375 33 18 62 22 169 25 l128 4 -7 1246 c-6 989
-10 1252 -21 1277 -22 52 -90 113 -147 130 -61 18 -88 18 -147 0z"/>
<path d="M7870 10845 c-61 -19 -113 -65 -144 -127 l-26 -52 0 -788 0 -788 243
0 244 0 -5 797 c-4 649 -7 803 -19 830 -22 54 -85 110 -144 127 -63 19 -90 19
-149 1z"/>
<path d="M8770 9944 c-62 -22 -105 -56 -137 -112 l-28 -47 -3 -347 -3 -348
241 0 240 0 0 344 c0 285 -3 350 -15 380 -23 55 -89 113 -148 131 -63 19 -90
18 -147 -1z"/>
<path d="M7700 6021 l0 -2589 28 -53 c95 -182 337 -178 436 6 l21 40 3 2141 2
2142 -127 4 c-139 5 -188 20 -241 76 -106 113 -70 299 73 375 33 18 62 22 168
25 l127 4 0 209 0 209 -245 0 -245 0 0 -2589z"/>
<path d="M8600 8400 l0 -210 245 0 245 0 0 149 c0 81 -3 176 -6 210 l-7 61
-238 0 -239 0 0 -210z"/>
<path d="M8600 5121 l0 -2589 28 -53 c91 -174 330 -179 426 -9 l31 55 3 2141
2 2142 -127 4 c-139 5 -188 20 -241 76 -106 113 -70 299 73 375 33 18 62 22
168 25 l127 4 0 209 0 209 -245 0 -245 0 0 -2589z"/>
</g>
</svg>
